<?xml version="1.0" encoding="UTF-8"?>
<svg version="1.1" xmlns="http://www.w3.org/2000/svg" width="3650" height="580">
<path d="M0 0 C0.74517883 0.00215515 1.49035767 0.0043103 2.25811768 0.00653076 C13.47361197 0.05848354 24.2881003 0.49117825 35.1875 3.3125 C35.96625488 3.50585938 36.74500977 3.69921875 37.54736328 3.8984375 C72.76270487 12.85605923 100.88830386 33.32743534 119.99853516 64.3046875 C129.30212183 80.01571354 135.1514127 98.17281318 137.1875 116.3125 C137.35185547 117.76269531 137.35185547 117.76269531 137.51953125 119.2421875 C139.71609519 141.79357731 135.98840092 163.74522631 132.02905273 185.88623047 C131.60610302 188.28324335 131.18380975 190.68037214 130.76211548 193.0776062 C129.74353216 198.85844515 128.71823702 204.638063 127.68982845 210.41716145 C126.49029802 217.16008854 125.29936638 223.90452612 124.10888923 230.64905645 C121.98502775 242.68031261 119.85463294 254.71040193 117.7199707 266.73974609 C115.65152055 278.39605654 113.5860543 290.0528891 111.5246582 301.71044922 C111.39730824 302.43062925 111.26995828 303.15080928 111.13874923 303.89281295 C110.4996082 307.50735657 109.86053347 311.1219119 109.22150123 314.73647475 C107.97945446 321.76186893 106.73713799 328.7872154 105.49464417 335.81253052 C105.31457005 336.83072117 105.31457005 336.83072117 105.13085807 337.86948134 C103.35775036 347.89469658 101.58238388 357.91950994 99.80552673 367.94406128 C99.58386687 369.19474026 99.36220701 370.44541924 99.13383019 371.73399758 C98.09581619 377.59060193 97.05747134 383.44714728 96.01853943 389.30358887 C95.6545968 391.35651469 95.29066391 393.40944223 94.92674255 395.46237183 C94.76370886 396.38064377 94.60067516 397.29891571 94.43270105 398.24501407 C90.60543296 419.84338005 90.76358489 440.78084801 103 460 C114.03984466 475.4950104 128.58878734 484.51478772 147.3828125 487.8046875 C170.96793894 490.95259965 195.44054338 483.46323922 214.55419922 469.56445312 C219.43040596 465.82675684 223.84462101 461.64903902 228.1875 457.3125 C228.91582031 456.59578125 229.64414063 455.8790625 230.39453125 455.140625 C246.53200773 438.20741496 252.24392879 416.40619356 256.33203125 394.08984375 C263.50818208 355.08487732 278.23607844 318.77304102 304.1875 288.3125 C305.11103918 287.20472886 306.03418694 286.09663132 306.95703125 284.98828125 C316.46821413 273.64451244 326.54860784 263.51455237 338.1875 254.3125 C339.36892578 253.33023438 339.36892578 253.33023438 340.57421875 252.328125 C383.69381708 216.69209332 439.62919183 199.6043419 495.1875 204.3125 C498.69880106 204.7050914 502.16695497 205.2377975 505.63671875 205.91015625 C508.63181479 206.38258334 511.16269711 206.6580756 514.1875 206.3125 C516.32796556 204.49966341 516.32796556 204.49966341 518 201.9375 C539.54456462 172.99583346 568.97614999 150.30701357 602.1875 136.3125 C603.11828369 135.9095874 603.11828369 135.9095874 604.06787109 135.49853516 C616.62537593 130.12621651 629.85975618 127.12746188 643.1875 124.3125 C644.23623291 124.08771973 644.23623291 124.08771973 645.30615234 123.85839844 C681.25371531 116.54206948 721.80230252 124.48805594 752.5625 144.1875 C759.12749648 148.80049191 765.20191561 153.98032847 771.1875 159.3125 C771.85523437 159.90675781 772.52296875 160.50101563 773.2109375 161.11328125 C789.21043293 176.24895416 799.9823619 197.44353021 805.9375 218.375 C806.13633789 219.07028809 806.33517578 219.76557617 806.54003906 220.48193359 C815.17231362 252.56053192 809.25329547 284.95992824 803.30601597 316.87481785 C799.95666746 334.85432474 796.76228138 352.86225548 793.5470295 370.8661232 C792.31728029 377.7471297 791.07741253 384.62621252 789.82875252 391.50381184 C789.03744749 395.86847003 788.25205839 400.23418037 787.46780777 404.60011101 C787.09865645 406.64764336 786.72699285 408.69472465 786.35259628 410.7413044 C780.69152483 440.56369732 780.69152483 440.56369732 791.1875 468.3125 C799.49701359 479.39185145 810.43607848 486.12145408 824.1875 488.3125 C843.16416701 489.57276396 861.90468716 484.24957264 876.78515625 472.2109375 C879.32826035 469.97852937 881.77455182 467.68461996 884.1875 465.3125 C884.81527344 464.69761719 885.44304687 464.08273437 886.08984375 463.44921875 C899.06832431 449.705567 903.09884192 432.33995791 906.2265625 414.25390625 C906.50719073 412.66756446 906.78854547 411.08135104 907.07055664 409.49525452 C907.67594953 406.08133903 908.27615412 402.66656662 908.87237549 399.2510376 C909.82651543 393.78660219 910.79426215 388.32462354 911.76318359 382.86279297 C914.9363397 364.95143779 918.06699322 347.03276416 921.17215919 329.10950375 C922.78496892 319.80075502 924.40513322 310.4933026 926.02931786 301.18653202 C927.21152408 294.40699782 928.38183943 287.62554639 929.54332352 280.84243298 C930.27597322 276.57886072 931.01897951 272.31713802 931.7645874 268.05581474 C932.10814033 266.07971699 932.44743353 264.10287282 932.78198242 262.12523079 C935.89466783 243.74832613 939.68446992 226.25197187 954.9453125 213.87109375 C966.02857808 206.16687256 978.91729655 202.05391883 992.44140625 203.7421875 C1000.74256154 205.46618277 1008.83082361 209.80964142 1013.94921875 216.67578125 C1022.29087445 229.98607449 1020.76605446 243.10517442 1018.01953125 258.01757812 C1017.78524734 259.33545662 1017.55195581 260.65351186 1017.31956482 261.97172546 C1016.69061178 265.52322901 1016.04797044 269.07212829 1015.40272522 272.62070274 C1014.7189537 276.39512837 1014.04822306 280.1718722 1013.37597656 283.94836426 C1012.09471485 291.13497495 1010.80210394 298.3194946 1009.50527 305.50330973 C1008.06151611 313.50384453 1006.62981042 321.50651733 1005.19947624 329.50946045 C1002.86845888 342.55040929 1000.53092563 355.5901817 998.1875 368.62890625 C998.05800901 369.34946701 997.92851803 370.07002777 997.79510307 370.81242371 C996.4837919 378.1088536 995.17117473 385.40504467 993.85546875 392.70068359 C992.8847361 398.08352078 991.91724989 403.46693014 990.95251465 408.85084534 C990.61548963 410.72759901 990.27708397 412.6041054 989.93713379 414.48033142 C986.46950726 433.61997334 983.76688121 450.66752914 994.94140625 468.0390625 C1002.90003267 478.68272046 1014.91495935 486.31754757 1028.1875 488.3125 C1047.78266055 489.61383889 1065.52632811 484.00196259 1081.1875 472.3125 C1081.91710938 471.76851563 1082.64671875 471.22453125 1083.3984375 470.6640625 C1106.48390943 451.95844295 1109.21901434 421.94870337 1114.03985548 394.70123434 C1114.65050761 391.25861363 1115.26800642 387.81722262 1115.88516235 384.37576294 C1117.97588677 372.71026002 1120.05587918 361.04285716 1122.12792969 349.37402344 C1123.27780105 342.89890109 1124.43444618 336.42502225 1125.5978924 329.95232499 C1126.20900271 326.55062192 1126.8168082 323.14841058 1127.41587448 319.74456406 C1134.77322892 278.03166793 1134.77322892 278.03166793 1142.9375 258.5625 C1143.36232666 257.52939697 1143.78715332 256.49629395 1144.22485352 255.43188477 C1153.93338976 232.27690963 1167.12572556 212.11712866 1184.109375 193.63671875 C1185.53373861 192.0436805 1186.90462781 190.40166526 1188.2265625 188.72265625 C1189.9806543 186.56673067 1191.69475844 184.84680991 1193.8125 183.0625 C1196.03156434 181.17609247 1198.21521164 179.28630266 1200.33203125 177.28515625 C1227.71970297 151.48382327 1264.47918928 134.88500252 1301 127.375 C1301.90331055 127.18768311 1302.80662109 127.00036621 1303.73730469 126.80737305 C1324.1283741 122.98002157 1344.8250334 123.0194546 1365.48946364 123.06176625 C1369.55036726 123.06781673 1373.61125872 123.06208512 1377.67216241 123.05794543 C1384.76816553 123.05229573 1391.86413651 123.05397571 1398.96013832 123.0606308 C1409.51162402 123.07049919 1420.06308647 123.06880317 1430.61457494 123.0648805 C1448.37014663 123.05862253 1466.125705 123.06175698 1483.88127518 123.07047462 C1501.45252226 123.07909991 1519.02376336 123.08399452 1536.59501266 123.08380699 C1537.6895202 123.08379935 1538.78402773 123.0837917 1539.91170216 123.08378382 C1544.35480355 123.08374291 1548.79790494 123.0836773 1553.24100634 123.08357801 C1594.8745917 123.08267297 1636.50816795 123.09260275 1678.14175016 123.10800768 C1715.14202747 123.12164766 1752.14229832 123.12786819 1789.14257812 123.12719727 C1791.52103466 123.12715685 1793.8994912 123.12711649 1796.27794774 123.12707619 C1797.45380946 123.12705584 1798.62967119 123.12703548 1799.84116509 123.12701452 C1805.7601309 123.12691372 1811.67909671 123.12682314 1817.59806252 123.12674427 C1818.76575823 123.12672756 1819.93345395 123.12671084 1821.13653438 123.12669362 C1852.05796537 123.12632876 1882.97939555 123.13086337 1913.90082586 123.13707083 C1915.00011259 123.13729111 1916.09939933 123.13751138 1917.23199778 123.13773832 C1921.65248418 123.13862655 1926.07297057 123.13951494 1930.49345696 123.14042928 C1945.88491784 123.1435914 1961.27637808 123.14509881 1976.66783926 123.14554077 C1996.48625861 123.14613697 2016.30467262 123.15011437 2036.12308969 123.15997223 C2046.60918854 123.16509776 2057.09527955 123.16749307 2067.58137959 123.16597604 C2074.57544603 123.16524407 2081.5695048 123.16812687 2088.56356878 123.17401985 C2092.55459573 123.17728337 2096.54560617 123.17894163 2100.53663392 123.17625926 C2104.16242979 123.17385761 2107.78819257 123.17600264 2111.41398421 123.18187737 C2113.34201893 123.18380418 2115.27005663 123.18080181 2117.19808972 123.17763731 C2118.90386756 123.18177692 2118.90386756 123.18177692 2120.64410555 123.18600017 C2121.62560475 123.18629167 2122.60710394 123.18658317 2123.61834554 123.1868835 C2125.96086598 123.30141893 2127.94705291 123.64574173 2130.1875 124.3125 C2129.6920177 134.63939416 2129.02602765 144.94497745 2128.1875 155.25 C2128.0630249 156.82201172 2128.0630249 156.82201172 2127.93603516 158.42578125 C2127.85401855 159.40804687 2127.77200195 160.3903125 2127.6875 161.40234375 C2127.6153125 162.27753662 2127.543125 163.15272949 2127.46875 164.05444336 C2127.1875 166.3125 2127.1875 166.3125 2126.1875 169.3125 C2126.89132813 169.63412109 2127.59515625 169.95574219 2128.3203125 170.28710938 C2152.12676904 181.18027258 2152.12676904 181.18027258 2161.7421875 186.07421875 C2169.00570281 189.75905011 2176.35039101 193.27732842 2183.6875 196.8125 C2184.68893539 197.29514313 2184.68893539 197.29514313 2185.71060181 197.78753662 C2189.5355117 199.63069481 2193.36118152 201.47226735 2197.1875 203.3125 C2197.1875 203.6425 2197.1875 203.9725 2197.1875 204.3125 C2196.34362898 204.31356822 2196.34362898 204.31356822 2195.48271005 204.31465801 C2133.6988128 204.39289446 2071.91491691 204.4721502 2010.13102722 204.5561676 C2009.195679 204.55743928 2008.26033079 204.55871096 2007.29663868 204.56002118 C1986.92793854 204.58771958 1966.55923862 204.61558384 1946.19053893 204.64361694 C1936.18960738 204.65738006 1926.18867577 204.67110684 1916.18774414 204.68481445 C1915.19297489 204.68617854 1914.19820563 204.68754262 1913.17329185 204.68894804 C1884.34399108 204.72846514 1855.51468855 204.76625589 1826.68538342 204.80245335 C1734.75081832 204.91791452 1642.81631681 205.05003496 1543.47741163 205.25503838 C1540.24973451 205.26171979 1537.02205736 205.26838959 1533.79438019 205.2750473 C1533.00693372 205.27667187 1532.21948725 205.27829643 1531.40817877 205.27997022 C1520.24959779 205.30291886 1509.0910147 205.32379321 1497.93242645 205.34287262 C1471.32676906 205.38856536 1444.72119864 205.44021859 1418.11566633 205.53621751 C1416.04521181 205.54365871 1413.97475724 205.5510827 1411.9043026 205.55848885 C1410.89774692 205.56209145 1409.89119125 205.56569405 1408.85413389 205.56940582 C1401.98659281 205.59300321 1395.11907969 205.60673466 1388.2515049 205.61547661 C1380.25767411 205.62567165 1372.26402658 205.64869097 1364.27029489 205.69038512 C1360.37052722 205.71042259 1356.47100584 205.72494094 1352.57118201 205.72150922 C1333.2858245 205.7096874 1314.54777528 206.36013823 1296.375 213.5625 C1295.60349609 213.85842041 1294.83199219 214.15434082 1294.03710938 214.45922852 C1282.09914255 219.17216657 1271.24863071 225.30932785 1261.1875 233.3125 C1260.40246094 233.92931641 1260.40246094 233.92931641 1259.6015625 234.55859375 C1251.75338564 240.76712803 1245.21984903 247.26936796 1239.1875 255.3125 C1238.53523438 256.1271875 1237.88296875 256.941875 1237.2109375 257.78125 C1224.25501902 274.50522446 1217.00990928 293.76182664 1212.81030273 314.28808594 C1212.59573897 315.32851421 1212.38117521 316.36894249 1212.16010952 317.4408989 C1209.97990844 328.13308469 1208.03875934 338.86539441 1206.13832283 349.61026764 C1205.51486002 353.13021343 1204.88548504 356.64905855 1204.25450134 360.16766357 C1202.46433607 370.15188509 1200.67845533 380.13683672 1198.91040039 390.125 C1197.81896354 396.28832758 1196.71592202 402.44948679 1195.60571098 408.60945892 C1195.19049764 410.9255103 1194.77943963 413.2423113 1194.37297249 415.55991364 C1191.26775704 433.25242757 1187.69233398 451.07380771 1180 467.4375 C1179.62327148 468.25186523 1179.24654297 469.06623047 1178.85839844 469.90527344 C1171.60077695 485.1953725 1162.28456396 498.58079919 1151.1875 511.3125 C1150.68653809 511.88790527 1150.18557617 512.46331055 1149.66943359 513.05615234 C1120.78092535 545.95508783 1078.87878414 568.45500926 1034.9921875 571.71484375 C1001.41678378 573.87586228 969.06917924 566.90828602 942.859375 544.76953125 C940.90462349 542.97196005 939.04421017 541.16889721 937.203125 539.26171875 C936.70901123 538.7510083 936.21489746 538.24029785 935.70581055 537.71411133 C934.31943845 536.26031546 932.95781674 534.78303572 931.59765625 533.3046875 C929.44615783 531.1015324 929.44615783 531.1015324 927.14453125 531.2890625 C924.74005574 532.54649281 922.87199552 534.04119327 920.8125 535.8125 C900.9734201 552.05502156 876.97558162 562.35945678 852.1875 568.3125 C851.52041016 568.47911133 850.85332031 568.64572266 850.16601562 568.81738281 C817.43507583 576.68257879 780.06696525 571.74064684 751.26171875 554.34375 C746.63154203 551.28442103 742.37690116 547.94609337 738.1875 544.3125 C737.37925781 543.64863281 736.57101562 542.98476563 735.73828125 542.30078125 C713.90093712 523.75446543 700.76899718 495.66132895 698.1875 467.3125 C697.23740229 452.71554431 697.94191791 438.65878671 700.50390625 424.27734375 C700.7654336 422.76124314 701.02623303 421.24501684 701.28640747 419.72868347 C702.23248084 414.25286042 703.20828815 408.78248133 704.1875 403.3125 C704.38477818 402.2098455 704.58205635 401.10719101 704.78531265 399.97112274 C706.25869889 391.74320841 707.73911999 383.51656581 709.22176194 375.29031515 C709.58627783 373.26764279 709.95063663 371.24494219 710.31494713 369.22223282 C710.93033033 365.80560342 711.54596115 362.38901871 712.16173685 358.97246003 C712.41106502 357.58896129 712.66033695 356.20545242 712.90955317 354.82193351 C714.30447596 347.07850674 715.70472071 339.33610551 717.11767578 331.59594727 C718.26050226 325.33526092 719.39261602 319.07273781 720.512797 312.80795878 C721.09962005 309.52840129 721.69306769 306.25040784 722.29658127 302.97385597 C726.90549647 277.92639065 729.44341543 256.01636531 715.1875 233.3125 C704.31023406 218.64284339 688.80188845 208.98247795 670.76733398 206.01831055 C647.24815019 202.80006158 622.14185467 210.30039827 603.1875 224.3125 C596.22769005 229.72522217 589.62308446 235.32389141 584.1875 242.3125 C585.49230756 245.22949767 586.82821666 247.11189947 589.1875 249.25 C616.41800312 275.80115585 629.5981254 315.45763563 630.22973633 352.81030273 C630.60077588 403.6337808 611.21611773 452.02576221 578.1875 490.3125 C577.44242188 491.18777344 576.69734375 492.06304687 575.9296875 492.96484375 C565.31521027 505.09279207 553.87093924 516.51395394 540.87451172 526.06982422 C539.21648451 527.29114961 537.57873502 528.53627916 535.94140625 529.78515625 C493.08098899 561.9703023 436.12705383 578.21214313 382.80224609 570.7265625 C343.54692968 564.51022108 308.51614536 543.71856946 284.1875 512.3125 C280.63895648 513.80368571 278.59841722 515.81503023 276 518.625 C265.58456284 529.24014318 253.14739943 538.07050959 240.1875 545.3125 C239.48931152 545.7053418 238.79112305 546.09818359 238.07177734 546.50292969 C219.52636311 556.84258425 200.88287042 563.59766485 180.1875 568.3125 C179.4248584 568.49329102 178.6622168 568.67408203 177.87646484 568.86035156 C166.54854228 571.45327309 155.1312289 571.61697759 143.5625 571.6875 C142.82954712 571.6955365 142.09659424 571.703573 141.34143066 571.71185303 C126.88614517 571.83203722 112.97977439 569.8825033 99.125 565.625 C98.29629395 565.37298828 97.46758789 565.12097656 96.61376953 564.86132812 C88.32282001 562.2232265 80.77611319 558.52934467 73.1875 554.3125 C72.27871094 553.82007813 71.36992188 553.32765625 70.43359375 552.8203125 C40.35763277 535.73060112 20.64814111 507.15968284 11.1875 474.3125 C8.01803854 462.087822 6.98145428 449.95789541 6.875 437.375 C6.83149414 435.75948242 6.83149414 435.75948242 6.78710938 434.11132812 C6.72752096 426.01188721 7.68311659 418.28663101 8.95149231 410.30134583 C9.13033331 409.15910641 9.30917431 408.016867 9.49343473 406.84001428 C11.32477164 395.25062555 13.3366783 383.69517347 15.3894043 372.14331055 C15.7925536 369.86194634 16.19544881 367.58053722 16.59811401 365.29908752 C17.67589138 359.19671873 18.75719349 353.09497959 19.83923697 346.993366 C20.97654763 340.5766507 22.11061062 334.15936138 23.24507141 327.74214172 C25.14518161 316.99595196 27.04756875 306.25016695 28.95141602 295.50463867 C30.90750242 284.46424176 32.86202979 273.42357049 34.81469727 262.38256836 C34.99597305 261.35758064 34.99597305 261.35758064 35.18091097 260.31188609 C35.66680307 257.56448343 36.15269068 254.81707997 36.63857083 252.06967519 C38.62047527 240.86322354 40.60348965 229.65696826 42.58672738 218.4507525 C43.03742209 215.90410538 43.48809273 213.357454 43.93873954 210.81079841 C45.22015708 203.56958911 46.50215897 196.32848376 47.78510666 189.08754539 C48.17350755 186.89496693 48.56172124 184.7023553 48.94973564 182.5097084 C49.47851353 179.52185653 50.00798367 176.53412815 50.53764343 173.5464325 C50.69153099 172.67603181 50.84541855 171.80563113 51.00396937 170.90885466 C51.56890615 167.72558123 52.13978908 164.548467 52.78054523 161.37943745 C56.17474406 144.14018323 51.95571275 127.14838435 43.1875 112.3125 C33.44367083 97.87442684 19.11394459 88.50745758 2.25 84.4375 C-20.3247377 80.25145592 -44.51048767 86.27882648 -63.8125 98.3125 C-67.94335255 101.16066728 -71.89962461 104.17316563 -75.8125 107.3125 C-76.53050781 107.86421875 -77.24851562 108.4159375 -77.98828125 108.984375 C-100.09673005 126.88380048 -107.66303386 154.63334656 -112.1875 181.375 C-112.54423646 183.41755157 -112.90230194 185.45987149 -113.26171875 187.50195312 C-114.12726913 192.43627523 -114.97496533 197.37334883 -115.8125 202.3125 C-114.56227051 202.33231934 -113.31204102 202.35213867 -112.02392578 202.37255859 C-107.34583806 202.44914416 -102.66804011 202.53777624 -97.99023438 202.62988281 C-95.97304035 202.66795525 -93.95578345 202.70284432 -91.93847656 202.734375 C-89.02386128 202.78050145 -86.10967087 202.83841296 -83.1953125 202.8984375 C-82.30635284 202.90998871 -81.41739319 202.92153992 -80.50149536 202.93344116 C-68.97498794 203.19971051 -59.55970334 205.30065152 -50.76953125 213.1328125 C-43.24391303 221.05958308 -41.21045154 229.3287036 -41.33959961 239.98632812 C-41.59881947 246.32000373 -42.93974462 251.62963499 -45.8125 257.3125 C-46.44865234 258.58673828 -46.44865234 258.58673828 -47.09765625 259.88671875 C-53.71911698 271.9307685 -64.29840236 280.93552314 -77.5456543 284.86376953 C-87.6710621 287.34041083 -98.199486 286.88980577 -108.5625 287 C-110.72397837 287.03322608 -112.88543764 287.0677205 -115.046875 287.10351562 C-120.30195227 287.18781109 -125.55704993 287.25640964 -130.8125 287.3125 C-130.91427583 287.88636633 -131.01605165 288.46023266 -131.1209116 289.05148888 C-133.62206716 303.1496789 -136.13619319 317.24551271 -138.66399479 331.3389492 C-139.88622603 338.15506281 -141.10438359 344.97185326 -142.31225586 351.79052734 C-143.48186295 358.39311531 -144.66373856 364.99341979 -145.85253716 371.59257889 C-146.3001049 374.08793768 -146.7438216 376.58399094 -147.18327522 379.08079147 C-156.18039331 430.13846481 -172.59476517 477.89223589 -209.8125 515.3125 C-210.31330078 515.8173291 -210.81410156 516.3221582 -211.33007812 516.84228516 C-250.56509698 555.86434254 -307.70688418 571.55020122 -361.81231403 571.43554783 C-363.18157562 571.43628936 -364.55083703 571.43746994 -365.92009792 571.43904433 C-369.66130547 571.44208961 -373.40248549 571.43895817 -377.14369097 571.43476619 C-381.2218123 571.43131256 -385.29993101 571.43370647 -389.37805289 571.43534368 C-396.51812113 571.43741205 -403.65818102 571.43578284 -410.79824829 571.43170547 C-421.41519467 571.42565951 -432.0321358 571.42537069 -442.64908358 571.42624746 C-460.51024181 571.42756012 -478.37139633 571.42422469 -496.23255348 571.41823006 C-513.91450837 571.41231079 -531.59646172 571.40846366 -549.27841759 571.40737724 C-550.92821618 571.40727413 -550.92821618 571.40727413 -552.61134404 571.40716894 C-558.19712323 571.4068306 -563.78290243 571.40652922 -569.36868163 571.40624207 C-608.92132591 571.40414227 -648.47396818 571.39740664 -688.02661133 571.38793945 C-726.44881174 571.37875347 -764.8710116 571.37167061 -803.29321289 571.36743164 C-804.47778344 571.36730011 -805.662354 571.36716859 -806.88282063 571.36703308 C-818.77888511 571.36571454 -830.67494959 571.36443873 -842.57101408 571.36319422 C-866.80415325 571.36065808 -891.03729239 571.35783683 -915.27043152 571.35484314 C-916.38460495 571.35470585 -917.49877839 571.35456856 -918.64671466 571.35442711 C-993.03531061 571.34522817 -1067.42390544 571.32938317 -1141.8125 571.3125 C-1141.17996512 565.98260283 -1140.33467619 560.9847141 -1138.96484375 555.77734375 C-1138.60333623 554.37699942 -1138.24201361 552.97660735 -1137.88085938 551.57617188 C-1137.31544266 549.40763537 -1136.74732521 547.23986354 -1136.17553711 545.07299805 C-1135.61881449 542.95544242 -1135.07256579 540.83538501 -1134.52734375 538.71484375 C-1134.19855225 537.46179443 -1133.86976074 536.20874512 -1133.53100586 534.91772461 C-1132.35824161 529.03318173 -1132.20319517 524.59092115 -1135.04296875 519.23828125 C-1135.75005981 517.87340576 -1135.75005981 517.87340576 -1136.47143555 516.48095703 C-1136.97586182 515.53849121 -1137.48028809 514.59602539 -1138 513.625 C-1139.01339347 511.67211477 -1140.02383816 509.71769637 -1141.03125 507.76171875 C-1141.75634766 506.35865479 -1141.75634766 506.35865479 -1142.49609375 504.92724609 C-1144.88997875 500.17232986 -1146.91360255 495.28530327 -1148.8125 490.3125 C-1145.63250741 489.37334347 -1142.78014948 489.18681897 -1139.47001308 489.18534148 C-1138.37772788 489.18242944 -1137.28544268 489.17951741 -1136.16005793 489.17651713 C-1134.95805942 489.17839734 -1133.75606091 489.18027755 -1132.51763821 489.18221474 C-1131.23696796 489.18027131 -1129.95629771 489.17832788 -1128.63681927 489.17632556 C-1125.06347462 489.17103621 -1121.4901541 489.17198839 -1117.91680704 489.17389868 C-1114.0357739 489.17487021 -1110.15474745 489.17004296 -1106.27371699 489.16591966 C-1099.46469458 489.15947588 -1092.65567831 489.15670249 -1085.84665298 489.15629387 C-1075.71994351 489.15564994 -1065.59324349 489.14926246 -1055.46653722 489.14154707 C-1039.47079574 489.12945719 -1023.47505468 489.12080226 -1007.47930994 489.11450893 C-982.05650365 489.10447405 -956.63371079 489.08521784 -931.21091256 489.06296654 C-921.42635 489.05443507 -911.64178721 489.04616879 -901.85722446 489.03786278 C-900.76998022 489.03693777 -899.68273598 489.03601276 -898.56254494 489.03505972 C-872.66564005 489.01305614 -846.76873366 488.99327447 -820.87182617 488.97460938 C-819.73846415 488.9737897 -818.60510213 488.97297002 -817.43739581 488.9721255 C-791.03055117 488.9530662 -764.6237066 488.93610213 -738.21685791 488.92376709 C-737.08333139 488.92323742 -735.94980487 488.92270775 -734.78192906 488.92216204 C-725.64674704 488.91791097 -716.51156499 488.91373442 -707.37638293 488.90957724 C-669.6383267 488.8923448 -631.9002887 488.86508328 -594.16224812 488.82641686 C-588.82154507 488.82095571 -583.48084189 488.8156226 -578.14013863 488.81037521 C-577.08912377 488.80934083 -576.03810891 488.80830645 -574.95524511 488.80724073 C-558.09892164 488.79097128 -541.24261105 488.7853903 -524.38628047 488.78407755 C-507.40604186 488.78256608 -490.42583786 488.77030947 -473.44561451 488.74732114 C-463.38157919 488.73403082 -453.31761973 488.72886932 -443.25357765 488.7358675 C-436.50063037 488.73973252 -429.7477494 488.7324929 -422.9948194 488.71685172 C-419.16658653 488.70828721 -415.33850723 488.70396363 -411.51027285 488.71342559 C-395.64758313 488.74921617 -379.93540232 488.28708916 -364.1298151 486.92471886 C-363.40825434 486.86299765 -362.68669357 486.80127644 -361.94326733 486.7376849 C-330.87931067 484.02335936 -297.20430929 478.22647907 -272.8125 457.3125 C-271.85085938 456.55066406 -270.88921875 455.78882813 -269.8984375 455.00390625 C-266.65924632 452.29874251 -264.07584737 449.26819866 -261.5 445.9375 C-260.79170044 445.0244812 -260.79170044 445.0244812 -260.0690918 444.09301758 C-253.15032336 434.99402851 -247.56549158 425.19989394 -242.5625 414.9375 C-242.25739502 414.32737061 -241.95229004 413.71724121 -241.63793945 413.08862305 C-234.72854843 398.37186287 -232.09279502 381.83701772 -229.0625 366 C-228.63435588 363.79319765 -228.20613165 361.58641085 -227.77783203 359.37963867 C-223.09455853 335.08862882 -218.91656313 310.70704944 -214.8125 286.3125 C-215.37689285 286.32138245 -215.94128571 286.33026489 -216.52278137 286.3394165 C-222.44468973 286.4285276 -228.36640488 286.48849612 -234.28881836 286.53222656 C-236.49332426 286.55223086 -238.69777786 286.57944322 -240.90209961 286.61425781 C-244.08720883 286.66327058 -247.27161116 286.68558127 -250.45703125 286.703125 C-251.42832474 286.72377014 -252.39961823 286.74441528 -253.40034485 286.76568604 C-264.45682446 286.76923914 -273.90900523 283.08851905 -281.8125 275.3125 C-287.93336971 268.08987374 -290.20401822 259.14755756 -289.75 249.8125 C-288.21385976 236.00357974 -281.67819289 223.09985566 -270.8125 214.3125 C-258.51536717 205.85397493 -246.68641119 203.12861467 -231.94140625 203.21484375 C-230.55791237 203.21696617 -230.55791237 203.21696617 -229.14646912 203.21913147 C-226.22261202 203.22469494 -223.29883365 203.23724058 -220.375 203.25 C-218.38346465 203.25501972 -216.3919281 203.2595818 -214.40039062 203.26367188 C-209.53773044 203.27465238 -204.67512853 203.29189161 -199.8125 203.3125 C-199.65692627 202.33716309 -199.50135254 201.36182617 -199.34106445 200.35693359 C-192.60887145 158.32196773 -184.65560511 119.38279605 -158.8125 84.3125 C-158.12655762 83.37639893 -158.12655762 83.37639893 -157.42675781 82.42138672 C-148.51747701 70.39161268 -138.48970932 58.73090545 -126.8125 49.3125 C-125.71467952 48.40254185 -124.61704106 47.49236407 -123.51953125 46.58203125 C-88.29372159 17.61153366 -45.94805702 -0.24067356 0 0 Z M369.1875 329.3125 C348.98494562 354.14805472 336.33565579 383.97549054 339.38964844 416.46289062 C342.22728908 438.97127037 353.58383391 457.76231178 370.7734375 472.44140625 C388.99365471 486.56354871 412.86788826 491.39616315 435.47265625 488.8828125 C463.47504352 485.15687761 487.78396533 472.58250497 508.1875 453.3125 C509.40566406 452.20841797 509.40566406 452.20841797 510.6484375 451.08203125 C529.94542296 432.91121056 544.52784671 403.91693138 545.5234375 377.2109375 C545.69648673 364.63857606 545.37955562 353.24478904 541.1875 341.3125 C540.81367187 340.24128906 540.43984375 339.17007813 540.0546875 338.06640625 C531.95941819 317.02406714 516.41772049 302.54101842 496.328125 293.07421875 C490.14818768 290.32935969 483.79977687 288.68740853 477.1875 287.3125 C476.465625 287.16167969 475.74375 287.01085937 475 286.85546875 C473.04790996 286.53993695 471.16397784 286.3975098 469.1875 286.3125 C467.61355469 286.23515625 467.61355469 286.23515625 466.0078125 286.15625 C429.58340001 285.23216343 393.19747399 302.06340641 369.1875 329.3125 Z " fill="#BC915D" transform="translate(1333.8125,3.6875)"/>
<path d="M0 0 C13.29678096 -0.69880893 23.53312967 1.49950844 34 10 C42.51285106 17.89232433 46.38259449 28.46765276 47.3125 39.8125 C46.88861586 52.32954921 41.72367771 61.98476959 32.80078125 70.4921875 C29.23811533 73.47524399 25.77712275 76 21 76 C20.67 74.02 20.34 72.04 20 70 C19.34 70 18.68 70 18 70 C14.67391575 65.79975258 12.41836357 61.1576857 11 56 C10.34 56 9.68 56 9 56 C5.62396401 49.86698793 3.80407261 44.06998796 2.3125 37.25 C2.10044922 36.31800781 1.88839844 35.38601562 1.66992188 34.42578125 C1.27820653 32.70322227 0.89070057 30.97969595 0.5090332 29.25488281 C0.17895018 27.79270208 -0.17517698 26.33566258 -0.55737305 24.88623047 C-2.39613512 17.05044683 -1.00006109 7.91119754 0 0 Z " fill="#8B4923" transform="translate(3575,128)"/>
</svg>
