<?xml version="1.0" encoding="utf-8"?>
<!-- Generator: Adobe Illustrator 28.0.0, SVG Export Plug-In . SVG Version: 6.00 Build 0)  -->
<svg version="1.1" id="Layer_1" xmlns="http://www.w3.org/2000/svg" xmlns:xlink="http://www.w3.org/1999/xlink" x="0px" y="0px"
	 viewBox="0 0 876 139" style="enable-background:new 0 0 876 139;" xml:space="preserve">
<style type="text/css">
	.st0{fill:url(#SVGID_1_);}
</style>
<linearGradient id="SVGID_1_" gradientUnits="userSpaceOnUse" x1="6.8468" y1="69.5" x2="869.1532" y2="69.5">
	<stop  offset="6.000000e-02" style="stop-color:#3D3D3D;stop-opacity:0"/>
	<stop  offset="0.25" style="stop-color:#3D3D3D"/>
	<stop  offset="0.75" style="stop-color:#3D3D3D"/>
	<stop  offset="0.96" style="stop-color:#3D3D3D;stop-opacity:0"/>
</linearGradient>
<path class="st0" d="M16.5,118.5c-5.4,0-9.8,4.4-9.7,9.9c0.1,5.3,4.7,9.5,10,9.5l216.4,0c29.6-0.4,45.7-17.4,50.4-41.4
	c0,0,0-0.1,0-0.1l4.9-26.8h9.8c2.7-0.1,5.4-1.1,7.5-2.9c2.1-1.8,3.5-4.2,4.1-6.9c0.3-1.2,0.3-2.4,0-3.6c-0.3-1.2-0.8-2.3-1.6-3.3
	c-0.8-0.9-1.8-1.7-2.9-2.2c-1.1-0.5-2.3-0.7-3.6-0.7H292l0.6-3.3l1.2-6.5c1.1-5.4,3.9-10.2,8.1-13.8c4.2-3.6,9.4-5.6,14.9-5.8
	c2.5-0.1,4.9,0.4,7.1,1.4c2.2,1,4.2,2.5,5.8,4.4c1.6,1.9,2.7,4.1,3.2,6.5c0.6,2.4,0.6,4.9,0,7.3l-10.4,58.7
	c-3.8,21.6,10.6,39.2,32.3,39.2c6.3-0.1,12.4-1.5,18.1-4.1c5.7-2.5,10.9-6.2,15.2-10.7c3.5,4.7,8.1,8.6,13.4,11.2
	c5.3,2.6,11.1,3.8,17,3.7c24.4,0,47.6-19.7,51.9-44c2.5-14-1.9-26.5-10.7-34.6c2.2-2.9,5-5.2,8.1-6.8c3.2-1.6,6.7-2.5,10.3-2.6
	c2.5-0.1,4.9,0.4,7.1,1.4c2.2,1,4.2,2.5,5.8,4.4c1.6,1.9,2.7,4.1,3.2,6.5c0.6,2.4,0.6,4.9,0,7.3l-6.1,34.4
	c-3.2,18.8,9.4,34.1,28.3,34.1c9.7-0.2,19.1-3.8,26.3-10.3c2.8,3.3,6.2,6,10.2,7.8c3.9,1.8,8.2,2.6,12.5,2.5
	c18.9,0,36.9-15.2,40.3-34.1l1.4-7.8c0-0.1,0-0.2,0.1-0.3l3.7-20.1c3-14.9,15.6-25.9,31.3-25.9l216.9,0c5.3,0,9.9-4,10-9.4
	c0.1-5.4-4.3-9.9-9.7-9.9H642.4c-24.6,0.2-45.7,17.4-50.4,41.4c0,0,0,0.1,0,0.1l-3.7,20.1c0,0,0,0,0,0l-0.7,4.1l-1.3,7.4
	c-0.8,4-3,7.6-6.1,10.2c-3.1,2.6-7,4.1-11.1,4.3c-1.8,0.1-3.6-0.3-5.3-1c-1.7-0.7-3.1-1.9-4.3-3.3c-1.2-1.4-2-3-2.4-4.8
	c-0.4-1.8-0.5-3.6-0.1-5.4l7.8-44.2c0.3-1.2,0.3-2.4,0-3.6c-0.3-1.2-0.8-2.3-1.6-3.3c-0.8-0.9-1.8-1.7-2.9-2.2
	c-1.1-0.5-2.3-0.7-3.6-0.7c-2.7,0.1-5.4,1.1-7.5,2.9c-2.1,1.8-3.5,4.2-4.1,6.9l-7.8,44.2c-0.8,4-3,7.6-6.1,10.2
	c-3.1,2.6-7,4.1-11.1,4.3c-1.8,0.1-3.6-0.3-5.3-1c-1.7-0.7-3.1-1.9-4.3-3.3c-1.2-1.4-2-3-2.4-4.8c-0.4-1.8-0.5-3.6-0.1-5.4l6.1-34.4
	c3.8-21.6-10.7-39.2-32.3-39.2c-14.9,0-29.4,8.3-38.2,20.6c-3.1-0.7-6.2-1.1-9.4-1c-24.4,0-47.6,19.7-51.9,44.1l-0.9,4.9
	c-1.1,5.4-3.9,10.3-8.1,13.8c-4.2,3.6-9.5,5.6-14.9,5.8c-10.8,0-17.7-8.7-16.1-19.6l10.4-58.7C356.3,18.5,341.8,1,320.2,1
	c-21.7,0-42.3,17.5-46.1,39.1l-1.7,9.8h-9.8c-2.7,0.1-5.4,1.1-7.5,2.9c-2.1,1.8-3.5,4.2-4.1,6.9c-0.3,1.2-0.3,2.4,0,3.6
	c0.3,1.2,0.8,2.3,1.6,3.3c0.8,0.9,1.8,1.7,2.9,2.2c1.1,0.5,2.3,0.7,3.6,0.7h9.8c0,0-2.4,14.2-3.7,20.5c-0.6,3-1.3,6.6-2.4,9.3
	c-1.6,3.7-3.6,7.1-6.3,10.1c-7.7,8.4-23.9,9-36.6,9.1L16.5,118.5z M450.8,94c-1.4,6.7-4.9,12.8-10.2,17.2c-5.2,4.4-11.8,7-18.7,7.2
	c-13.5,0-22.6-11-20.2-24.5c1.4-6.7,4.9-12.8,10.2-17.2c5.2-4.4,11.8-7,18.7-7.2C444.2,69.5,453.2,80.5,450.8,94z"/>
</svg>
